<?xml version="1.0" encoding="UTF-8" standalone="no"?>
<!DOCTYPE svg PUBLIC "-//W3C//DTD SVG 20010904//EN"
              "http://www.w3.org/TR/2001/REC-SVG-20010904/DTD/svg10.dtd">

<svg xmlns="http://www.w3.org/2000/svg"
     width="2.77778in" height="2.77778in"
     viewBox="0 0 200 200">
  <rect id="bg" width="100%" height="100%" fill="black" />
  <path id="y"
        fill="white" stroke="white" stroke-width="1"
        d="M 115.02,0.00
           C 115.02,0.00 115.02,78.97 115.02,78.97
             115.02,78.97 171.83,199.98 171.83,199.98
             171.83,199.98 148.08,199.98 148.08,199.98
             148.08,199.98 103.78,103.05 103.78,103.05
             103.78,103.05 54.67,199.98 54.67,199.98
             54.67,199.98 28.98,199.98 28.98,199.98
             28.98,199.98 90.62,78.97 90.62,78.97
             90.62,78.97 90.62,0.00 90.62,0.00
             90.62,0.00 115.02,0.00 115.02,0.00 Z" />
</svg>
